<?xml version="1.0" encoding="UTF-8"?>
<svg id="_レイヤー_1" data-name="レイヤー_1" xmlns="http://www.w3.org/2000/svg" version="1.1" viewBox="0 0 180 180">
  <!-- Generator: Adobe Illustrator 29.6.1, SVG Export Plug-In . SVG Version: 2.1.1 Build 9)  -->
  <defs>
    <style>
      .st0 {
        fill: #0f9c7c;
      }

      .st1 {
        fill: #fff;
      }
    </style>
  </defs>
  <rect class="st0" x="-.1704545" y=".0719697" width="180" height="180"/>
  <g>
    <path class="st1" d="M105.171673,119.3811735c-.3174171,0-.6379309-.0201289-.9584447-.0634834-5.2830584-.7068336-9.7191553-1.0219281-14.3828634-1.0219281-4.6644823,0-9.1013533.3150945-14.3859601,1.0219281-.3189654.0433545-.638705.0634834-.9568963.0634834-4.2278403,0-8.3101333-3.7671985-10.055927-5.993763-1.5723757-2.0043726-9.1075468-10.0644431-9.9622503-10.9772107-.1834825-.1958695-.2694174-.4629644-.2345789-.729285.0340643-.2663206.1858051-.5032222.4134164-.6456727,5.5501533-3.4838457,20.0886285-11.5857224,35.1814222-11.5857224,15.0881486,0,29.6297205,8.1018767,35.1814222,11.5849482.2276113.1432248.3793521.3801263.4134164.6464469.0348385.2655465-.0510964.5334155-.2345789.729285-.8539293.9127676-8.3898746,8.9728381-9.9630245,10.9772107-1.7442454,2.2257903-5.8265384,5.993763-10.0551529,5.993763Z"/>
    <path class="st1" d="M51.2672899,98.0902312c-.2624497,0-.5210285-.1145798-.6975433-.3313524-2.6136585-3.2082348-5.2675747-11.4533363-5.2675747-15.0370522,0-9.198901,2.9891396-13.713965,7.5134939-20.5484961,2.2552094-3.4064269,4.8108038-7.2657537,7.480978-12.5131995,7.8974911-15.5209197,18.1098041-23.7249892,29.532947-23.7249892,11.4223687,0,21.6346817,8.2040695,29.532947,23.7249892,2.6701742,5.2474458,5.2257685,9.1067726,7.4802038,12.5116512,4.5251285,6.8360794,7.5142681,11.3511435,7.5142681,20.5500445,0,3.5821676-2.6546904,11.827269-5.2683489,15.0370522-.1765148.2167726-.4350936.3313524-.6975433.3313524-.1664504,0-.3344492-.0464513-.4846416-.1416764-12.4760385-7.9965871-25.9987791-12.4009423-38.076885-12.4009423-12.0773317,0-25.6008465,4.4043551-38.0784334,12.4009423-.1494183.0952251-.3174171.1416764-.4838675.1416764Z"/>
    <path class="st1" d="M89.8296343,120.6245549"/>
    <polyline class="st1" points="91.4147646 119.3811735 91.7631743 96.9278419 87.8952811 96.9278419 88.2436908 119.3811735"/>
    <path class="st1" d="M89.8292277,87.6029387c-3.3929754,0-6.5869845.3509975-9.6445429.9851541,1.4545056,7.427559,4.9483189,9.4031898,9.6445429,9.4031898s8.1900374-1.9756308,9.6445429-9.4031898c-3.0575585-.6341567-6.2515675-.9851541-9.6445429-.9851541Z"/>
    <path class="st1" d="M80.8279377,54.1171428c-.478161-1.6988754-2.8731392-2.4869974-4.5092191-2.2581014-1.1933617.1669575-4.7623547,1.5280656-3.8040576,4.8975238.9377654,3.2972673,5.0825973,2.5682454,6.3870557,1.8007835,1.3057386-.7682151,2.505003-2.3838311,1.9262211-4.440206Z"/>
    <path class="st1" d="M98.8305177,54.1171428c.478161-1.6988754,2.8731392-2.4869974,4.5092191-2.2581014,1.1933617.1669575,4.7623547,1.5280656,3.8040576,4.8975238-.9377654,3.2972673-5.0825973,2.5682454-6.3870557,1.8007835-1.3057386-.7682151-2.505003-2.3838311-1.9262211-4.440206Z"/>
    <path class="st1" d="M79.8476766,86.6134874c-1.6902117-15.9381571,2.4328785-31.4744243,3.439595-35.6145625.2641297-1.0862375.58935-1.528849,1.1745776-1.4380711.5787284.0897698.6925795.6484848.5380273,1.7389993-.7858386,5.5448463-3.5384114,15.1070639-2.9366802,30.6355778.1008208,2.6018221,1.0530579,4.1202719,4.1700334,3.73877"/>
    <path class="st1" d="M50.0140999,45.4748224c-.1305318-.4299033-.4573536-.7707959-.8855303-.9066728-3.1778941-1.0109752-6.0305468-1.4058098-8.4775883-1.1734707-2.9965661.2845148-5.2295565,1.4771719-6.4571169,3.4469119-3.3997039,5.4577447-2.5010171,10.7538916,2.748858,16.1906074.2863215.2963253.6907865.4445633,1.0977275.4059255,2.6893637-.4744301,5.8326569-5.695639,8.0624471-8.7294401,3.8100046-5.1838044,4.2016803-8.277181,3.9112029-9.2338611Z"/>
    <path class="st1" d="M129.6450815,45.4748224c.1305318-.4299033.4573536-.7707959.8855303-.9066728,3.1778941-1.0109752,6.0305468-1.4058098,8.4775883-1.1734707,2.9965661.2845148,5.2295565,1.4771719,6.4571169,3.4469119,3.3997039,5.4577447,2.5010171,10.7538916-2.748858,16.1906074-.2863215.2963253-.6907865.4445633-1.0977275.4059255-2.6893637-.4744301-5.8326569-5.695639-8.0624471-8.7294401-3.8100046-5.1838044-4.2016803-8.277181-3.9112029-9.2338611Z"/>
    <path class="st1" d="M89.8295003,142.3348558h-.0009323c16.1614673,0,19.3863747-10.4940557,20.418435-14.5719004.4022114-1.5892055-.1582822-1.8567316-1.6411843-2.1168899-4.0672829-.7135584-8.0215493-1.65277-18.7767845-1.65277-10.7552352,0-14.7095016.9392116-18.7767845,1.65277-1.4829021.2601583-2.0433958.5276844-1.6411843,2.1168899,1.0320602,4.0778447,4.2569677,14.5719004,20.418435,14.5719004h-.0009323s.0009323,0,.0009323,0Z"/>
    <path class="st1" d="M84.5897244,96.672445c.6742959.6835646,3.3502326.9054013,3.3502326,3.1345476l1.2421947.0087313v-2.5341104l-3.2187197-.8848533-1.3737077.2756848Z"/>
    <path class="st1" d="M79.5267872,82.3432234c.1409011,2.8974152-.6408167,4.3256078-2.8401656,4.7968652l2.3555101.2102375s1.7795652-.2876065,1.7795652-.3595081.2157049-.575213.1258278-.7729425-1.4207376-3.8746521-1.4207376-3.8746521Z"/>
    <path class="st1" d="M99.8107789,86.6134874c1.6902117-15.9381571-2.4328785-31.4744243-3.439595-35.6145625-.2641297-1.0862375-.58935-1.528849-1.1745776-1.4380711-.5787284.0897698-.6925795.6484848-.5380273,1.7389993.7858386,5.5448463,3.5384114,15.1070639,2.9366802,30.6355778-.1008208,2.6018221-1.0530579,4.1202719-4.1700334,3.73877"/>
    <path class="st1" d="M100.1316683,82.3432234c-.1409011,2.8974152.6408167,4.3256078,2.8401656,4.7968652l-2.3555101.2102375s-1.7795652-.2876065-1.7795652-.3595081c0-.0719016-.2157049-.575213-.1258278-.7729425s1.4207376-3.8746521,1.4207376-3.8746521Z"/>
    <path class="st1" d="M78.1776891,90.9022564c1.1780197-.3115684,2.7433255.3556132,3.2235957,1.7635875l.7765628-2.0646584s-.575213-1.3122047-.6111638-1.4739833-2.3188274.0359508-2.3727536.1977295-1.0162411,1.5773248-1.0162411,1.5773248Z"/>
    <path class="st1" d="M95.068731,96.672445c-.6742959.6835646-3.3502326.9054013-3.3502326,3.1345476l-1.2421947.0087313v-2.5341104s3.2187197-.8848533,3.2187197-.8848533l1.3737077.2756848Z"/>
    <path class="st1" d="M101.4807664,90.9022564c-1.1780197-.3115684-2.7433255.3556132-3.2235957,1.7635875l-.7765628-2.0646584s.575213-1.3122047.6111638-1.4739833,2.3188274.0359508,2.3727536.1977295,1.0162411,1.5773248,1.0162411,1.5773248Z"/>
    <circle class="st1" cx="77.1112659" cy="98.0902312" r="1.4592472"/>
    <circle class="st1" cx="64.7383136" cy="103.9770319" r="1.4592472"/>
    <circle class="st1" cx="73.6777432" cy="105.6937933" r="1.4592472"/>
    <circle class="st1" cx="102.5471895" cy="98.0902312" r="1.4592472"/>
    <circle class="st1" cx="114.9201419" cy="103.9770319" r="1.4592472"/>
    <circle class="st1" cx="105.9807123" cy="105.6937933" r="1.4592472"/>
    <g>
      <path class="st1" d="M89.8295392,167.1049259c71.7940762,0,83.9644538-56.4270379,74.0124631-91.9399603-10.3925678-37.0850882-39.5458022-62.1259745-74.0124631-62.1259745-34.4666609,0-63.6198953,25.0408862-74.0124631,62.1259745-9.9519907,35.5129224,2.2183869,91.9399603,74.0124631,91.9399603Z"/>
      <g>
        <path class="st0" d="M89.8284776,89.4495197c15.0927937,0,29.6312689,8.1018767,35.1814222,11.5857224.2276113.1424506.3793521.3793521.4134164.6456727.0348385.2663206-.0419894.5386739-.1362169.7899744-.9539605,2.5441706-8.7311278,11.0181243-15.4060789,13.6374089-5.1958631,2.038883-15.3888347,2.1874639-20.053317,2.1874639"/>
        <path class="st0" d="M89.8290342,123.9932956c15.204369-.1305591,18.6788326-3.3687407,22.747681-4.4271856,1.4570578-.37903,2.0433958.5276844,1.6411843,2.1168899-1.0320602,4.0778447-8.2278641,20.651856-24.3893314,20.651856h.0009323-.0009323.0009323"/>
        <path class="st0" d="M89.8295907,89.4495197c-15.0927937,0-29.6312689,8.1018767-35.1814222,11.5857224-.2276113.1424506-.3793521.3793521-.4134164.6456727-.0348385.2663206.0419894.5386739.1362169.7899744.9539605,2.5441706,8.7311278,11.0181243,15.4060789,13.6374089,5.1958631,2.038883,15.3888347,2.1874639,20.053317,2.1874639"/>
        <path class="st0" d="M51.2672899,98.0902312c-.2624497,0-.5210285-.1145798-.6975433-.3313524-2.6136585-3.2082348-5.2675747-11.4533363-5.2675747-15.0370522,0-9.198901,2.9891396-13.713965,7.5134939-20.5484961,2.2552094-3.4064269,4.8108038-7.2657537,7.480978-12.5131995,7.8974911-15.5209197,18.1098041-23.7249892,29.532947-23.7249892,11.4223687,0,21.6346817,8.2040695,29.532947,23.7249892,2.6701742,5.2474458,5.2257685,9.1067726,7.4802038,12.5116512,4.5251285,6.8360794,7.5142681,11.3511435,7.5142681,20.5500445,0,3.5821676-2.6546904,11.827269-5.2683489,15.0370522-.1765148.2167726-.4350936.3313524-.6975433.3313524-.1664504,0-.3344492-.0464513-.4846416-.1416764-12.4760385-7.9965871-25.9987791-12.4009423-38.076885-12.4009423-12.0773317,0-25.6008465,4.4043551-38.0784334,12.4009423-.1494183.0952251-.3174171.1416764-.4838675.1416764Z"/>
        <path class="st1" d="M89.8296343,120.6245549"/>
        <polyline class="st1" points="91.4147646 119.3811735 91.7631743 96.9278419 87.8952811 96.9278419 88.2436908 119.3811735"/>
        <path class="st1" d="M89.8292277,87.6029387c-3.3929754,0-6.5869845.3509975-9.6445429.9851541,1.4545056,7.427559,4.9483189,9.4031898,9.6445429,9.4031898s8.1900374-1.9756308,9.6445429-9.4031898c-3.0575585-.6341567-6.2515675-.9851541-9.6445429-.9851541Z"/>
        <path class="st1" d="M80.8279377,54.1171428c-.478161-1.6988754-2.8731392-2.4869974-4.5092191-2.2581014-1.1933617.1669575-4.7623547,1.5280656-3.8040576,4.8975238.9377654,3.2972673,5.0825973,2.5682454,6.3870557,1.8007835,1.3057386-.7682151,2.505003-2.3838311,1.9262211-4.440206Z"/>
        <path class="st1" d="M98.8305177,54.1171428c.478161-1.6988754,2.8731392-2.4869974,4.5092191-2.2581014,1.1933617.1669575,4.7623547,1.5280656,3.8040576,4.8975238-.9377654,3.2972673-5.0825973,2.5682454-6.3870557,1.8007835-1.3057386-.7682151-2.505003-2.3838311-1.9262211-4.440206Z"/>
        <path class="st1" d="M79.8476766,86.6134874c-1.6902117-15.9381571,2.4328785-31.4744243,3.439595-35.6145625.2641297-1.0862375.58935-1.528849,1.1745776-1.4380711.5787284.0897698.6925795.6484848.5380273,1.7389993-.7858386,5.5448463-3.5384114,15.1070639-2.9366802,30.6355778.1008208,2.6018221,1.0530579,4.1202719,4.1700334,3.73877"/>
        <path class="st0" d="M50.0140999,45.4748224c-.1305318-.4299033-.4573536-.7707959-.8855303-.9066728-3.1778941-1.0109752-6.0305468-1.4058098-8.4775883-1.1734707-2.9965661.2845148-5.2295565,1.4771719-6.4571169,3.4469119-3.3997039,5.4577447-2.5010171,10.7538916,2.748858,16.1906074.2863215.2963253.6907865.4445633,1.0977275.4059255,2.6893637-.4744301,5.8326569-5.695639,8.0624471-8.7294401,3.8100046-5.1838044,4.2016803-8.277181,3.9112029-9.2338611Z"/>
        <path class="st0" d="M129.6450815,45.4748224c.1305318-.4299033.4573536-.7707959.8855303-.9066728,3.1778941-1.0109752,6.0305468-1.4058098,8.4775883-1.1734707,2.9965661.2845148,5.2295565,1.4771719,6.4571169,3.4469119,3.3997039,5.4577447,2.5010171,10.7538916-2.748858,16.1906074-.2863215.2963253-.6907865.4445633-1.0977275.4059255-2.6893637-.4744301-5.8326569-5.695639-8.0624471-8.7294401-3.8100046-5.1838044-4.2016803-8.277181-3.9112029-9.2338611Z"/>
        <path class="st0" d="M89.8290342,123.9932956c-15.204369-.1305591-18.6788326-3.3687407-22.747681-4.4271856-1.4570578-.37903-2.0433958.5276844-1.6411843,2.1168899,1.0320602,4.0778447,8.2278641,20.651856,24.3893314,20.651856h-.0009323s.0009323,0,.0009323,0h-.0009323"/>
        <path class="st1" d="M84.5897244,96.672445c.6742959.6835646,3.3502326.9054013,3.3502326,3.1345476l1.2421947.0087313v-2.5341104l-3.2187197-.8848533-1.3737077.2756848Z"/>
        <path class="st1" d="M79.5267872,82.3432234c.1409011,2.8974152-.6408167,4.3256078-2.8401656,4.7968652l2.3555101.2102375s1.7795652-.2876065,1.7795652-.3595081.2157049-.575213.1258278-.7729425-1.4207376-3.8746521-1.4207376-3.8746521Z"/>
        <path class="st1" d="M99.8107789,86.6134874c1.6902117-15.9381571-2.4328785-31.4744243-3.439595-35.6145625-.2641297-1.0862375-.58935-1.528849-1.1745776-1.4380711-.5787284.0897698-.6925795.6484848-.5380273,1.7389993.7858386,5.5448463,3.5384114,15.1070639,2.9366802,30.6355778-.1008208,2.6018221-1.0530579,4.1202719-4.1700334,3.73877"/>
        <path class="st1" d="M100.1316683,82.3432234c-.1409011,2.8974152.6408167,4.3256078,2.8401656,4.7968652l-2.3555101.2102375s-1.7795652-.2876065-1.7795652-.3595081c0-.0719016-.2157049-.575213-.1258278-.7729425s1.4207376-3.8746521,1.4207376-3.8746521Z"/>
        <path class="st1" d="M78.1776891,90.9022564c1.1780197-.3115684,2.7433255.3556132,3.2235957,1.7635875l.7765628-2.0646584s-.575213-1.3122047-.6111638-1.4739833-2.3188274.0359508-2.3727536.1977295-1.0162411,1.5773248-1.0162411,1.5773248Z"/>
        <path class="st1" d="M95.068731,96.672445c-.6742959.6835646-3.3502326.9054013-3.3502326,3.1345476l-1.2421947.0087313v-2.5341104s3.2187197-.8848533,3.2187197-.8848533l1.3737077.2756848Z"/>
        <path class="st1" d="M101.4807664,90.9022564c-1.1780197-.3115684-2.7433255.3556132-3.2235957,1.7635875l-.7765628-2.0646584s.575213-1.3122047.6111638-1.4739833,2.3188274.0359508,2.3727536.1977295,1.0162411,1.5773248,1.0162411,1.5773248Z"/>
        <circle class="st1" cx="77.1112659" cy="98.0902312" r="1.4592472"/>
        <circle class="st1" cx="64.7383136" cy="103.9770319" r="1.4592472"/>
        <circle class="st1" cx="73.6777432" cy="105.6937933" r="1.4592472"/>
        <circle class="st1" cx="102.5471895" cy="98.0902312" r="1.4592472"/>
        <circle class="st1" cx="114.9201419" cy="103.9770319" r="1.4592472"/>
        <circle class="st1" cx="105.9807123" cy="105.6937933" r="1.4592472"/>
      </g>
    </g>
  </g>
</svg>