<?xml version="1.0" encoding="UTF-8"?>
<svg id="_レイヤー_1" data-name="レイヤー_1" xmlns="http://www.w3.org/2000/svg" version="1.1" viewBox="0 0 253.5988922 163.5914307">
  <!-- Generator: Adobe Illustrator 29.6.1, SVG Export Plug-In . SVG Version: 2.1.1 Build 9)  -->
  <defs>
    <style>
      .st0, .st1 {
        fill: #231815;
      }

      .st1 {
        stroke: #231815;
        stroke-linejoin: round;
        stroke-width: .4px;
      }

      .st1, .st2, .st3, .st4 {
        stroke-linecap: round;
      }

      .st2 {
        stroke-width: 3.4000001px;
      }

      .st2, .st3, .st4 {
        fill: none;
        stroke: #fff;
        stroke-miterlimit: 10;
      }

      .st3 {
        stroke-width: 4.5px;
      }

      .st4 {
        stroke-width: 5px;
      }
    </style>
  </defs>
  <g id="_レイヤー_2">
    <path class="st0" d="M45.241703,22.4780617c-1.3204498-1.760601-3.0325813-.722044-4.8376884,2.3105373s-6.4983902,11.1916676-8.2312927,15.9571514c-1.7329044,4.7654839-5.5341148,11.8757706-6.9316139,21.1558647-.6563282,4.3583488.2166138,7.0038185,2.3105373,6.9316139s1.3100853-4.389534,1.8051071-7.3648415c.7020378-4.2195587,3.031847-11.4804878,5.8842831-18.1232834s4.7816467-11.2473068,10.0006638-18.0510788c1.0557518-1.3763313.8664513-1.6606998.0000038-2.8159637Z"/>
    <path class="st0" d="M51.5187721,31.0441818c-1.209156.875597-2.3136559,2.6154366-1.7603874,3.6213722s1.5089035,1.4083099,3.218998.3520775,5.2308693-3.1184044,5.7338371-3.4201851,1.4586067-.704155,1.5089035.8047485-4.0740433,11.6688652-5.6332436,15.5920181-5.0799789,12.2724266-5.9853249,13.1777687-1.6094971,1.8106842-1.0562325,2.4142494,2.7663269,1.5089073,4.7279015-2.0118752,6.890667-15.6423149,8.7516479-19.6157646,3.5710754-9.6066933,1.4586067-12.4736137-5.1302757-2.6657314-10.9647064,1.5592041Z"/>
    <path class="st0" d="M40.755249,41.9082985c-1.4598274.4994164-2.0621719,1.8106842-1.6597939,2.8669205s1.0059357,1.5592003,3.3195915.8047485,8.1480865-2.5651398,9.8581772-2.9172173,2.6657333-.8047485,2.4142494-2.0118713-.8047485-2.3639526-3.8728561-1.7603874-8.1480865,2.3639526-10.0593681,3.017807Z"/>
    <path class="st0" d="M34.5687408,51.917366c-1.343689.4478951-2.967514,1.8106842-2.3136559,2.9172173s1.7100906,1.6597939,4.9793854.6035614,5.8344307-2.0118752,8.1480865-2.7663269,3.1687012-2.2130623,3.1687012-3.0681076-1.860981-1.156826-5.2308693-.3017807-6.639183,1.9112778-8.7516479,2.6154366Z"/>
    <path class="st0" d="M35.8764572,64.1563797c-1.6597939.435791-2.4645462,1.793808-2.2130623,2.6488495s1.9615746,1.7603912,4.7781982,1.0059357,7.8463058-1.525444,6.3374023-3.6547852-2.2633591-1.877861-3.8225594-1.5257835-5.0799789,1.5257835-5.0799789,1.5257835Z"/>
    <path class="st0" d="M39.3367958,69.9236298c-.5293503-1.43573-2.5000458-1.5135574-4.4616241.8503952S2.6314893,111.3908768,1.6955811,112.5305176c-1.4090991,1.7158356-2.1280353,2.917984-1.4189893,3.7679062.778957.9337158,1.7248826.3399048,3.761972-2.0129852,4.1185074-4.7569733,11.1155996-13.5298462,14.8878622-18.0062637s17.8553734-21.6779327,18.8613091-22.784462,2.1424789-1.9615784,1.5490608-3.5710831Z"/>
    <path class="st0" d="M45.5334511,67.5093842c-.84795-.7267456-1.8106842-1.1809921-2.8166237.9687042s-4.2583618,8.2366257-1.3580132,12.2593613c4.6054573,6.3876953,13.9322243-.2011871,14.9381599-.9556427s1.5089035-1.4083099,1.5089035-2.7160263.3520775-2.5148392-1.6094971-1.4083099-6.7900734,3.8225555-10.0090714,3.8225555-3.5207787-2.8166199-2.1627655-5.2811661,1.4651985-3.1184006,1.939724-4.375824.2442093-1.7351151-.4308167-2.313652Z"/>
    <path class="st0" d="M81.347229,42.8619652c-.9255447.7509155-1.3768005,2.0656815-.9122009,2.9120369.3937759.7173386,1.8041229,1.4223633,3.3681412.2105103,3.1533737-2.4433327,6.9535294-5.322197,7.7955627-5.813385s2.5895386-1.2386589,3.1158066-.7123871-1.0525436,3.1927147-2.1050873,4.9469566-4.947464,7.2849464-5.543396,8.1396713c-.7766037,1.1138573-.9213486,2.442749-.3249054,2.9339371s1.7984695.6096268,3.3071136-1.1446114,5.298317-7.1716766,6.4500275-9.0841751c1.6856079-2.7990608,3.2361603-7.0225296,1.131073-8.741684s-5.4760132-1.2251816-8.0372009.2834663-6.3854294,4.5610237-8.2449341,6.069664Z"/>
    <path class="st0" d="M120.7317734,20.1999722c-.3138351-1.3593845.3630676-1.9841137.829483-2.1637249,1.4604416-.562397,2.0076218.2523766,2.2776794.9084396.7404556,1.7987862,4.0680237,11.4293652,7.5185013,16.8611832.7740631,1.218544.0033569,2.1447182-.3696747,2.2962265s-1.4290771.2165947-2.2436371-.8403282c-3.9275131-5.096096-7.4416275-14.5896683-8.012352-17.0617962Z"/>
    <path class="st0" d="M137.394455,18.3941536c-.1741791.853096-.5037537,2.6907482-1.1634521,5.1399117-.6596985,2.4491653-1.8759918,5.837204-5.9541931,10.2846298s-8.3390961,3.310688-8.9708786,2.6070633-2.0132751-1.9800644-.2496796-5.2560482,7.6602249-6.5762863,12.12603-8.6790867c.3784332-.9616108.8270264-3.9372559,1.067749-5.2279453s1.3043213-1.2932177,1.8781433-.9326477c.6670532.4191532,1.4404602,1.2110291,1.2662811,2.0641232ZM129.8353424,28.1615257c-.285675-.3374176-1.4884796.6997395-3.0784302,1.8964882s-3.5636139,3.2675018-3.2378845,3.7945251,2.5333557-.8739929,4.1769867-2.459547,2.5435944-2.7539692,2.139328-3.2314663Z"/>
    <path class="st0" d="M125.2735062,52.5155983c-.5875626.3469505-.7416,1.5115089.1604843,1.3363686,14.9307098-2.8988228,30.20784-34.9003525,10.6069946-32.1798973l-1.1733704,3.8480434c12.4988556-3.0812683,3.8116608,19.0794239-9.5941086,26.9954853Z"/>
    <path class="st0" d="M171.7309418,4.0894017c-.8060455.5619359-2.5276947,1.9670854-2.2215118,2.9321837s1.9002533,1.0069771,3.9907684.0042067,6.7030334-3.1686532,7.898056-3.4085875,2.1026917.0424156,1.9181213,1.2481904-3.2732391,6.0281711-6.1010895,8.1601253c-2.4819489,1.8711767-3.9530182,2.7633982-5.0843964,3.6867828-1.1313782.9233856-1.7743378,2.3550034-1.3763428,3.2025051.2774048.5906982,1.8424377,1.2575035,3.2401123.1575203,2.1934357-1.726244,4.047226-1.022253,5.3461456-.7394905s1.9095917,1.6139202,1.5203857,2.7794342c-.8162384,2.444397-1.139389,2.7732029-3.0766602,2.8515587s-3.9319458-.6155052-6.6697083,1.274559c-3.3930817,2.3424816-4.9626923,4.6578503-4.526947,6.6682568s3.0527496,1.2493858,6.9017639-.8369026,9.3838348-4.6531906,10.6419678-9.6767349-3.611084-6.676837-4.3153381-6.6775799c5.2521515-4.094759,6.3581085-7.4136677,6.8926239-9.2384987C187.4693909,3.8806419,186.6078796.0047884,182.0693665.0000042c-4.5385132-.0047842-10.3384247,4.0893975-10.3384247,4.0893975Z"/>
    <g>
      <g>
        <path class="st0" d="M175.935257,87.7863083c-1.1241913-.6017609-2.256546-.2276535-2.6688385.6105499s-.3766174,1.4865341,1.3826752,2.4611282,6.140213,3.4839935,7.3162079,4.3201065,1.9879913,1.1592331,2.5765228.3273163.9766998-1.8180389-1.1161957-3.3339539-6.0185089-3.59729-7.4903564-4.3851471h-.0000153Z"/>
        <path class="st0" d="M96.0425491,112.2960281c-1.2351532-.3348923-2.7425079.0736847-3.2436676,2.5624161s-7.4590378,42.3946686-7.8503952,44.2105408-.6863556,4.033493.3377838,4.397522c1.2014008.4270477,2.0861206-.0503998,2.9702148-4.479126,1.0179977-5.0994873,2.7873459-14.2004089,3.7783966-18.9357605s4.4991684-22.7702103,4.7976074-23.9695282.6996078-3.3822021-.7899399-3.7860641Z"/>
        <path class="st0" d="M222.8768768,40.522049c-1.5263214-1.348526-3.424942-.3120766-4.2320557,3.6960526s-9.7515564,58.6884003-10.1429138,60.5042801-.8024139,3.5951462.3377838,4.3975296,1.9904175.6278381,2.9702148-4.479126,2.7873535-14.2004166,3.7783966-18.9357605,7.2459564-36.6716499,7.726593-38.6031685,1.2730255-5.0680542-.4380188-6.5797958v-.0000114Z"/>
      </g>
      <path class="st0" d="M108.0707321,109.7468033c-3.1751709,2.894989-7.2530594,6.101265-8.7161179,7.0351334s-3.0817642,1.774353-4.949501,2.0233841-2.2724152,1.8366089-.1556473,2.1167679,5.3733521.4119568,12.0435944-4.56604c6.945282-5.1832581,12.7035522-12.4263458,14.0732269-14.4185944s2.3046341-4.7854462,2.0070419-6.7478638c-.2831573-1.8672485-2.7882156-5.0606232-9.0451279-4.002243-7.4835968,1.2658844-18.2693863,5.5786896-34.1140137,14.3259201-7.239418,3.9966125-17.598175,10.8639984-18.2415619,11.2998047-.6939583.4700623-1.8677368,1.2451553-1.4008026,2.1478958s1.3523026,2.1379242,3.4553108.7782211c3.6109581-2.334671,11.3309364-7.0973969,14.5060844-9.1207809s12.9807663-6.5993347,17.7434998-8.9028778c4.7627258-2.3035431,14.1548462-5.4047623,15.8134995-5.9456253,2.8638611-.9338684,7.9020309-1.1356354,7.1596603,1.4630585-.6241608,2.1847916-5.4832382,8.2322998-10.1791458,12.5138397Z"/>
      <path class="st0" d="M183.7580414,83.9478683c-2.0350342,2.550705-5.031601,4.8311234-5.3663177,5.1898117s-.2045593,2.7575607,2.1757355,1.4156189,4.5293884-3.0555649,6.8061523-6.1589966c1.4373627-1.959259,3.2030334-5.8011398,3.2030487-8.4236679,0-4.3960648-2.4777985-6.1424561-7.0524292-5.5918427s-10.6927185,3.1550064-15.2301636,6.1204453c-4.5374298,2.9654388-8.4608307,5.683075-9.4651947,6.447319-.5816803.4426041-1.2410583,1.4688187-.1852264,2.8843536s2.6805878,1.3217468,3.6861115.4492798c1.6660767-1.4456177,4.8806458-3.6709671,7.04216-5.2389984s10.1136475-5.2043152,11.8052063-5.860878c4.0539093-1.5734787,8.9226685.8188171,2.5809326,8.7675476l-.0000153.0000076Z"/>
      <path class="st0" d="M240.0524902,7.3297858c-.879364-.3947196-1.9515839-.5619392-2.8246613,2.005939-.8730774,2.5678778-4.1356964,14.1315699-5.4439087,21.9040022-.9590607,5.698082-3.1218262,20.6362419-3.1218262,27.2251244s.3151093,16.7765121,8.8019409,17.704483c7.1998291.7872467,12.8256989-7.6954117,14.2843018-9.8078842s2.5148468-4.1243401,1.358017-5.1302757c-2.1570587-1.8757095-3.581131.6700363-4.6273041,2.0118752-2.3136597,2.967514-6.035614,8.6510544-9.5061035,8.6510544-4.4802856,0-6.3054199-6.0126495-6.3054199-12.1991615s.7224731-14.0557861,2.181076-22.8577309,6.0251923-25.6513844,6.2818909-26.2549458.304245-2.6320343-1.0780029-3.25248Z"/>
      <g>
        <path class="st1" d="M138.9639587,119.166748c.6458588.0969009,1.5602722-.2657776,2.6281433-1.0548172,2.4576874-1.8161697,10.2851868-6.9194107,12.4319916-7.8575516,1.0647125-.4651184,1.541687-1.0821075,1.6334534-1.504509.0482483-.2230682-.0055389-.412117-.1700745-.5956345-.462738-.5157394-1.4064331-.9298401-2.4173431-.9298401-.592865,0-1.2086792.1423798-1.7639618.4908218-1.9534149,1.2252808-10.9907684,7.6815567-12.0546875,8.4520035-1.1758423.851532-1.4811707,1.4032593-1.5302124,1.7161102-.0185852.1170731-.0166168.2831802.1633453.5287933.3278809.4469223.6806641.693718,1.0793457.7546234Z"/>
        <path class="st1" d="M144.0575256,101.9520569c-2.0443726,1.4420242-3.9234314,3.7604904-3.7814484,4.3739243.9401245.7890396,2.3623657,1.4704971,3.7252808.0735626,1.8810425-1.9284973,4.0654297-3.9139481,6.0057831-4.0183563.4239807-.0225449.6731567-.3132401.7649078-.5778351.0518188-.1495056.134079-.5307693-.2206879-.8428268-.7910156-.6957016-2.2619019-1.9921722-6.4938354.9915314Z"/>
      </g>
    </g>
  </g>
  <g id="_レイヤー_11" data-name="_レイヤー_1">
    <path class="st3" d="M45.2993927,21.6206169c-13.9865437,18.9423065-20.764164,43.6237679-17.6218128,47.7163887"/>
    <path class="st3" d="M49.7583847,34.665554c6.4468117-4.6387482,9.5029411-6.4747944,11.3513832-4.1334343,1.8484421,2.341362-.0848961,11.4264717-12.1031914,32.5201797"/>
    <path class="st3" d="M39.0954552,44.775219c2.5686684-1.1931725,10.9757118-3.9940605,15.4598656-4.6269035"/>
    <path class="st3" d="M34.0850601,54.4334297c4.1101685-1.5790253,11.0020599-4.1685371,14.466198-4.8297195"/>
    <path class="st3" d="M34.3720551,66.9469604c2.2705574-.7954254,6.5584106-2.3229446,9.5565453-2.7905807"/>
    <path class="st3" d="M37.5297356,71.0130005C29.4890137,80.2552032.2765918,116.2984238.2765918,116.2984238"/>
    <path class="st3" d="M44.8725662,68.9090729c-3.554409,5.4187241-6.7821007,19.7441483,12.9333115,8.1567078"/>
    <path class="st3" d="M80.4350281,45.7740021c4.698288-3.8863602,11.9996338-10.455368,15.6040955-7.5867653s-7.7102203,14.957901-8.4862595,16.2461929"/>
    <path class="st2" d="M121.9528809,17.6060276c1.5305252,6.9739571,6.4736633,17.622839,8.931076,20.3078098"/>
    <path class="st4" d="M136.0481262,17.0408058c-1.3751526,6.6551552-4.277771,12.9439392-7.9605713,16.4827499s-8.1482925,2.0084877-5.7909012-1.5276012,13.8005753-11.3940716,19.1047134-7.3177433c5.6080475,4.3098907-4.6636505,24.1386604-16.5744095,28.8903198"/>
    <path class="st4" d="M169.5094299,7.0215855c5.0919189-2.8723497,12.5102081-6.8863983,14.963501-4.2966089s-3.6343231,11.0993977-14.1934814,17.4348936c3.7325439-1.7189331,11.6396332-3.4869785,12.0325317.1964493s-4.0763245,8.1035423-9.2822418,10.7556114-5.8443756.5893478-4.0763245-1.0804729,5.4514771-4.4692268,10.3627167-2.5047321"/>
    <path class="st4" d="M60.1224632,119.7771912c12.6032143-8.7491074,49.6051826-32.1007385,59.5649605-25.0458908,4.6286774,3.2786407-16.4342804,23.6487808-21.5040436,25.048233"/>
    <path class="st4" d="M95.0976028,114.0174332c-1.9286118,8.6787643-9.8113327,49.4490738-9.8113327,49.4490738"/>
    <path class="st4" d="M140.9986115,107.2058105c1.5428925-1.8671341,6.0465698-7.5877533,9.7734375-5.4024582"/>
    <path class="st4" d="M137.7136078,119.1821136c4.9243317-3.6217804,14.9531097-11.3188705,19.3889313-12.5811539"/>
    <path class="st4" d="M160.0918884,85.0882263c5.7858429-4.8215332,22.3719177-16.5802536,27.1934509-11.6622849s-4.5322418,14.0730515-6.0751343,15.0373611"/>
    <path class="st4" d="M174.3725433,89.2347488c1.6304169.3857193,9.537735,5.4965515,9.537735,5.4965515"/>
    <path class="st4" d="M221.5182495,42.3694305c-1.5428925,6.7501488-11.8609772,65.3800125-11.8609772,65.3800125"/>
    <path class="st4" d="M239.5507812,8.9079781c-3.0857849,9.8359299-16.5339813,62.6556435-2.8929138,64.8014336,8.5823364,1.350029,15.1396179-11.4752541,15.1396179-11.4752541"/>
  </g>
</svg>