<?xml version="1.0" encoding="UTF-8"?>
<svg id="_レイヤー_1" data-name="レイヤー_1" xmlns="http://www.w3.org/2000/svg" version="1.1" viewBox="0 0 253.5988966 163.5914357">
  <!-- Generator: Adobe Illustrator 29.6.1, SVG Export Plug-In . SVG Version: 2.1.1 Build 9)  -->
  <defs>
    <style>
      .st0, .st1 {
        fill: #231815;
      }

      .st1 {
        stroke: #231815;
        stroke-linecap: round;
        stroke-linejoin: round;
        stroke-width: .4px;
      }
    </style>
  </defs>
  <path class="st0" d="M45.2417021,22.4780615c-1.3204509-1.7606012-3.0325812-.7220431-4.8376891,2.3105381s-6.4983883,11.1916688-8.2312919,15.9571536c-1.7329036,4.7654848-5.5341146,11.8757702-6.9316142,21.1558642-.6563283,4.3583469.2166129,7.0038185,2.3105381,6.9316142s1.310085-4.3895342,1.8051079-7.3648401c.7020382-4.2195596,3.0318467-11.4804861,5.8842844-18.123283,2.8524377-6.642797,4.7816468-11.2473065,10.0006649-18.0510787,1.0557525-1.3763316.8664518-1.6606992,0-2.8159683Z"/>
  <path class="st0" d="M51.5187726,31.0441826c-1.2091566.8755962-2.3136543,2.6154352-1.7603891,3.6213719s1.508905,1.4083113,3.2189972.3520778,5.2308705-3.1184036,5.7338388-3.4201846,1.4586081-.7041556,1.508905.8047493-4.0740434,11.6688649-5.6332451,15.5920178-5.07998,12.2724269-5.985323,13.1777699-1.6094986,1.8106859-1.0562335,2.4142479,2.7663257,1.508905,4.7279022-2.0118733,6.8906659-15.6423147,8.7516487-19.6157644,3.571075-9.6066949,1.4586081-12.4736143-5.1302768-2.6657321-10.9647093,1.5592018Z"/>
  <path class="st0" d="M40.7552506,41.9082982c-1.4598286.499415-2.0621701,1.8106859-1.6597954,2.8669194s1.0059366,1.5592018,3.3195909.8047493,8.1480867-2.5651384,9.858179-2.9172162,2.6657321-.8047493,2.4142479-2.0118733-.8047493-2.3639511-3.872856-1.7603891-8.1480867,2.3639511-10.0593663,3.0178099Z"/>
  <path class="st0" d="M34.5687403,51.9173677c-1.3436881.447896-2.9675131,1.8106859-2.3136543,2.9172162s1.7100923,1.6597954,4.9793863.603562,5.8344325-2.0118733,8.1480867-2.7663257,3.1687004-2.2130606,3.1687004-3.0681067-1.8609828-1.1568271-5.2308705-.301781-6.6391818,1.9112796-8.7516487,2.6154352Z"/>
  <path class="st0" d="M35.8764579,64.1563777c-1.6597954.4357916-2.4645448,1.793806-2.2130606,2.6488522s1.9615764,1.7603891,4.778199,1.0059366,7.8463057-1.525442,6.3374008-3.6547888-2.2633574-1.8778627-3.8225592-1.5257848-5.07998,1.5257848-5.07998,1.5257848Z"/>
  <path class="st0" d="M39.336797,69.9236334c-.5293506-1.4357276-2.5000468-1.5135574-4.4616233.8503937S2.6314892,111.3908801,1.6955811,112.5305188c-1.4090991,1.715835-2.1280353,2.9179872-1.4189893,3.767905.778957.9337185,1.7248827.339902,3.7619716-2.0129848,4.1185075-4.7569755,11.1155998-13.5298477,14.8878622-18.0062657s17.8553752-21.6779345,18.8613119-22.7844648,2.1424792-1.9615764,1.5490595-3.571075Z"/>
  <path class="st0" d="M45.5334496,67.5093855c-.847951-.7267437-1.8106859-1.180993-2.8166226.9687053s-4.2583617,8.2366233-1.3580145,12.2593615c4.6054555,6.3876976,13.9322224-.2011873,14.938159-.9556398s1.508905-1.4083113,1.508905-2.7160289.3520778-2.5148416-1.6094986-1.4083113-6.7900723,3.8225592-10.0090695,3.8225592-3.5207782-2.8166226-2.1627638-5.2811673,1.4651989-3.1184036,1.9397234-4.3758244.2442078-1.7351172-.4308185-2.3136543Z"/>
  <path class="st0" d="M81.3472273,42.8619651c-.9255458.7509145-1.3768025,2.065683-.9122046,2.9120377.3937754.7173379,1.8041195,1.4223628,3.36814.2105087,3.1533703-2.4433341,6.953527-5.3221978,7.795562-5.8133849s2.5895362-1.2386581,3.1158081-.7123863-1.0525437,3.192716-2.1050875,4.9469556-4.9474659,7.284945-5.543397,8.1396716c-.7766016,1.1138569-.9213485,2.4427503-.324907,2.9339374s1.7984683.6096265,3.3071143-1.144613,5.2983166-7.1716777,6.4500291-9.0841747c1.6856042-2.7990604,3.2361595-7.0225307,1.131072-8.7416855s-5.4760137-1.2251815-8.0372034.2834646-6.385432,4.5610229-8.2449259,6.0696689Z"/>
  <path class="st0" d="M120.7317757,20.199973c-.3138365-1.359384.3630678-1.9841139.8294866-2.1637259,1.4604381-.5623964,2.0076195.2523769,2.2776816.9084391.7404537,1.7987852,4.0680265,11.4293656,7.5185062,16.8611842.7740604,1.2185423.0033635,2.1447167-.3696753,2.2962261s-1.4290797.2165938-2.2436404-.8403288c-3.9275155-5.0960967-7.4416273-14.5896695-8.0123587-17.0617947Z"/>
  <path class="st0" d="M137.3944568,18.3941531c-.1741764.8530959-.5037552,2.6907478-1.1634497,5.1399126-.6596944,2.4491648-1.8759909,5.8372047-5.9541952,10.2846294-4.0782043,4.4474247-8.3390985,3.3106881-8.9708778,2.6070618s-2.0132744-1.9800628-.2496809-5.2560475,7.660221-6.5762859,12.1260326-8.6790876c.3784296-.9616099.8270337-3.9372564,1.0677462-5.2279447s1.3043169-1.2932179,1.8781375-.9326483c.6670529.4191536,1.4404636,1.2110285,1.2662872,2.0641243ZM129.8353439,28.1615256c-.285668-.3374183-1.4884793.6997392-3.0784331,1.8964889s-3.5636159,3.2675033-3.2378846,3.7945252,2.5333583-.8739937,4.1769905-2.4595466,2.5435908-2.7539693,2.1393272-3.2314676Z"/>
  <path class="st0" d="M125.2735054,52.5155985c-.5875589.3469511-.7415971,1.5115104.1604871,1.3363692,14.9307089-2.8988221,30.2078368-34.9003516,10.6070024-32.1798975l-1.1733732,3.8480434c12.4988552-3.0812679,3.8116678,19.0794243-9.5941163,26.9954849Z"/>
  <path class="st0" d="M171.730943,4.0894018c-.8060389.561936-2.5276976,1.9670854-2.2215086,2.9321836s1.9002542,1.0069776,3.9907632.0042068,6.703039-3.1686533,7.8980584-3.4085875,2.1026919.0424155,1.9181137,1.2481903-3.2732429,6.0281717-6.1010865,8.1601254c-2.4819466,1.8711767-3.9530251,2.7633981-5.0844009,3.686782s-1.7743396,2.3550038-1.3763405,3.2025057c.2774003.5906979,1.8424316,1.2575043,3.2401141.1575194,2.1934309-1.7262439,4.047221-1.0222534,5.3461447-.7394913s1.9095854,1.6139203,1.5203917,2.779434c-.8162442,2.4443965-1.1393922,2.7732036-3.0766538,2.8515594s-3.931953-.6155056-6.6697098,1.2745595c-3.3930829,2.3424826-4.9626914,4.6578501-4.5269442,6.6682583.4357472,2.0104082,3.0527425,1.2493863,6.9017647-.8369031s9.383831-4.6531896,10.6419709-9.6767355-3.6110828-6.6768368-4.3153351-6.6775792c5.2521561-4.0947592,6.3581027-7.4136675,6.8926175-9.2384991C187.4693862,3.8806419,186.607881.0047884,182.069366.0000042s-10.338423,4.0893976-10.338423,4.0893976Z"/>
  <g>
    <g>
      <path class="st0" d="M175.9352596,87.7863088c-1.1241904-.6017637-2.2565537-.227657-2.6688422.6105503s-.3766224,1.4865341,1.3826683,2.4611288,6.1402076,3.4839918,7.3162146,4.3201067,1.9879878,1.1592322,2.5765204.32732.976693-1.8180388-1.1162007-3.333956-6.0185147-3.5972911-7.4903603-4.3851498Z"/>
      <path class="st0" d="M96.042546,112.2960289c-1.2351568-.3348916-2.7425067.0736845-3.2436651,2.5624165s-7.4590402,42.3946681-7.8503925,44.2105413-.6863564,4.0334943.3377808,4.3975266c1.2014043.4270423,2.0861196-.0503929,2.9702155-4.4791279,1.0179971-5.0994915,2.787346-14.2004133,3.7783983-18.9357605s4.4991686-22.7702103,4.7976076-23.9695307.6996078-3.3821988-.7899445-3.7860654Z"/>
      <path class="st0" d="M222.8768737,40.5220473c-1.5263148-1.3485246-3.4249344-.312077-4.2320549,3.6960509-.8071205,4.0081279-9.7515586,58.6884012-10.142911,60.5042744s-.8024114,3.595147.3377808,4.3975266,1.9904196.6278411,2.9702155-4.4791279,2.787346-14.2004133,3.7783983-18.9357605,7.2459561-36.6716514,7.726595-38.6031689,1.2730263-5.0680535-.4380237-6.5797946Z"/>
    </g>
    <path class="st0" d="M108.0707319,109.7468012c-3.1751688,2.894988-7.2530602,6.101269-8.7161205,7.0351373s-3.0817653,1.7743497-4.9495018,2.0233812-2.2724128,1.8366076-.1556447,2.1167681,5.3733493.4119557,12.0435965-4.5660422c6.9452837-5.1832574,12.7035561-12.4263433,14.0732296-14.4185956s2.3046309-4.7854422,2.0070427-6.7478673c-.2831556-1.8672501-2.788214-5.0606267-9.0451313-4.0022427-7.4836006,1.2658827-18.2693849,5.5786888-34.1140165,14.3259215-7.2394204,3.9966152-17.5981738,10.8640008-18.2415601,11.299806-.6939572.47006-1.8677365,1.2451577-1.4008024,2.147897s1.352304,2.1379274,3.4553126.7782236c3.6109573-2.3346707,11.3309349-7.0973988,14.506087-9.12078s12.9807689-6.5993357,17.743497-8.9028774c4.7627281-2.3035417,14.1548499-5.4047629,15.8135026-5.9456279,2.8638627-.9338683,7.9020313-1.1356348,7.1596567,1.4630603-.6241597,2.1847892-5.4832381,8.2323019-10.1791474,12.5138384Z"/>
    <path class="st0" d="M183.7580401,83.9478711c-2.0350309,2.5507061-5.0315954,4.8311201-5.3663242,5.1898097s-.2045565,2.7575593,2.1757372,1.4156206,4.5293947-3.0555612,6.8061524-6.1589967c1.4373615-1.9592592,3.2030391-5.8011368,3.2030436-8.4236691.0000075-4.3960687-2.4777978-6.1424589-7.0524249-5.591842-4.574627.5506169-10.6927257,3.1550063-15.2301607,6.1204467-4.5374349,2.9654404-8.4608297,5.683073-9.4652015,6.4473196-.5816738.4426073-1.241053,1.4688148-.1852318,2.8843522s2.6805914,1.3217445,3.6861126.4492804c1.6660819-1.4456152,4.8806452-3.6709686,7.042162-5.2389953s10.1136527-5.2043187,11.8052068-5.8608763c4.0539044-1.5734772,8.9226666.8188209,2.5809284,8.7675503Z"/>
    <path class="st0" d="M240.0524909,7.3297856c-.8793695-.3947197-1.9515874-.5619393-2.824666,2.0059389s-4.1357041,14.13157-5.4439017,21.9040005c-.9590587,5.6980825-3.1218225,20.6362415-3.1218225,27.2251265s.3151125,16.7765141,8.8019455,17.7044848c7.1998319.7872469,12.8256921-7.6954152,14.2843002-9.8078822s2.5148416-4.1243402,1.3580145-5.1302768c-2.157066-1.8757096-3.581132.6700381-4.6273085,2.0118733-2.3136543,2.9675131-6.0356198,8.651055-9.5061012,8.651055-4.4802829,0-6.3054204-6.0126509-6.3054204-12.1991612s.7224721-14.0557849,2.1810802-22.8577304,6.0251871-25.6513842,6.2818876-26.2549461.3042466-2.6320341-1.0780078-3.2524821Z"/>
    <g>
      <path class="st1" d="M138.9639563,119.16675c.6458643.0968994,1.5602783-.2657812,2.6281494-1.0548193,2.4576855-1.8161719,10.2851807-6.9194092,12.4319971-7.8575537,1.064707-.4651172,1.5416895-1.0821094,1.6334473-1.5045117.048252-.2230664-.0055371-.4121191-.1700684-.5956348-.4627441-.5157422-1.4064258-.9298389-2.4173437-.9298389-.5928662,0-1.2086719.1423828-1.7639648.4908252-1.9534131,1.2252832-10.9907666,7.6815527-12.0546826,8.452002-1.1758447.8515283-1.4811768,1.4032617-1.5302197,1.7161084-.0185889.1170703-.0166113.2831836.1633447.5287939.327876.4469238.6806689.6937207,1.0793408.7546289Z"/>
      <path class="st1" d="M144.0575242,101.9520541c-2.0443799,1.4420215-3.9234375,3.7604883-3.7814502,4.3739209.9401221.7890381,2.3623682,1.470498,3.7252881.0735645,1.8810352-1.9284961,4.0654248-3.9139453,6.0057861-4.0183594.4239844-.0225439.6731543-.3132422.7649121-.5778369.0518115-.149502.1340771-.5307715-.2206934-.8428271-.7910156-.6956982-2.2619092-1.9921729-6.4938428.9915381Z"/>
    </g>
  </g>
</svg>